<?xml version="1.0" encoding="UTF-8"?>
<!DOCTYPE svg PUBLIC "-//W3C//DTD SVG 1.1//EN" "http://www.w3.org/Graphics/SVG/1.1/DTD/svg11.dtd">
<svg xmlns="http://www.w3.org/2000/svg" xml:space="preserve" width="210mm" height="297mm" style="shape-rendering:geometricPrecision; text-rendering:geometricPrecision; image-rendering:optimizeQuality; fill-rule:evenodd; clip-rule:evenodd"
viewBox="0 0 210 297"
 xmlns:xlink="http://www.w3.org/1999/xlink">
 <defs>
  <style type="text/css">
   <![CDATA[
    .str3 {stroke:#00A53D;stroke-width:0.1757;stroke-linecap:round;stroke-linejoin:round}
    .str0 {stroke:#00A53D;stroke-width:0.1759;stroke-linecap:round;stroke-linejoin:round}
    .str4 {stroke:#00A53D;stroke-width:0.1764;stroke-linecap:round;stroke-linejoin:round}
    .str2 {stroke:#00A53D;stroke-width:0.1765;stroke-linecap:round;stroke-linejoin:round}
    .str1 {stroke:#00A53D;stroke-width:0.1767;stroke-linecap:round;stroke-linejoin:round}
    .fil0 {fill:none}
    .fil1 {fill:#1F1A17;fill-rule:nonzero}
   ]]>
  </style>
 </defs>
 <g id="Capa_x0020_1">
   <g id="_57171368">
   <polygon id="_58436392" class="fil0 str0" points="102.778,98.4047 103.305,97.2646 103.931,96.6022 104.805,95.8549 105.093,95.4653 105.347,94.9306 105.397,94.4549 105.659,94.035 106.707,93.4842 107.07,93.392 107.425,93.185 107.72,92.9242 108.214,92.9043 108.797,92.8326 109.336,92.7867 110.045,92.5226 111.311,92.1424 112.751,91.9585 114.129,91.8708 115.302,91.8421 116.315,91.9966 117.618,92.1902 118.654,92.539 119.503,93.0266 120.149,93.5732 121.102,94.2385 121.651,94.722 122.062,95.0186 122.434,94.8911 122.738,94.5952 123.714,93.4614 124.164,92.7528 124.472,92.157 124.948,91.4929 125.389,90.8195 125.873,90.2701 126.401,89.6949 126.918,89.3048 127.62,88.9259 128.446,88.5045 129.216,88.2942 129.977,88.1189 130.754,88.0233 131.708,87.9741 132.618,87.8009 133.518,87.8128 134.101,87.7411 134.518,87.5878 134.711,86.9993 134.508,86.3439 134.702,85.6072 134.87,86.2516 135.026,86.5183 135.312,86.8573 135.585,87.249 135.85,87.6009 135.895,87.8573 135.877,88.2099 135.715,88.7503 135.424,89.0684 134.324,89.6052 133.677,89.7731 132.242,90.2217 131.239,90.7466 130.387,91.1235 129.798,91.645 129.314,92.1944 129.016,92.755 128.778,93.3693 128.53,94.1688 128.377,95.0312 128.004,95.8731 127.515,96.8723 126.612,98.4393 125.241,100.071 124.276,101.02 123.443,101.326 122.928,101.566 122.354,101.603 121.728,101.551 120.849,101.318 120.218,101.001 119.465,100.577 118.389,99.954 117.882,99.5945 117.517,99.8367 116.896,100.764 116.274,101.126 115.535,101.645 114.94,101.902 114.372,102.203 113.866,102.409 113.07,102.574 111.576,102.819 109.972,102.772 109.264,102.886 108.082,102.95 106.593,102.745 105.775,102.566 105.037,102.372 104.362,102.08 103.803,101.632 103.42,101.23 102.646,101.74 102.27,102.167 101.786,102.717 101.54,103.366 101.319,104.06 101.17,104.623 101.25,104.964 100.987,104.819 100.911,104.536 100.922,104.068 101.191,102.691 100.871,102.908 100.545,103.217 100.013,104.092 99.8075,103.943 99.9189,103.521 100.24,102.948 100.942,102.212 102.929,100.668 103.162,100.479 103.023,100.241 102.823,100 102.682,99.6809 102.688,99.2311 "/>
   <line id="_58435432" class="fil0 str1" x1="105.22" y1="95.198" x2="105.574" y2= "95.0457" />
   <line id="_58434336" class="fil0 str1" x1="105.975" y1="94.7379" x2="106.368" y2= "94.3902" />
   <line id="_58433376" class="fil0 str2" x1="106.776" y1="93.8399" x2="107.07" y2= "93.392" />
   <line id="_58432416" class="fil0 str1" x1="103.093" y1="100.36" x2="103.534" y2= "100.281" />
   <line id="_58431456" class="fil0 str2" x1="103.882" y1="100.316" x2="104.306" y2= "100.56" />
   <line id="_58430496" class="fil0 str1" x1="104.588" y1="100.916" x2="104.805" y2= "101.237" />
   <line id="_58429536" class="fil0 str0" x1="105.088" y1="101.518" x2="105.676" y2= "101.711" />
   <line id="_58428576" class="fil0 str0" x1="106.138" y1="101.815" x2="106.913" y2= "101.869" />
   <line id="_58427616" class="fil0 str0" x1="107.689" y1="101.923" x2="108.872" y2= "102.142" />
   <line id="_58426656" class="fil0 str3" x1="109.959" y1="102.372" x2="110.918" y2= "102.513" />
   <line id="_58425696" class="fil0 str0" x1="111.934" y1="102.442" x2="113.396" y2= "102.245" />
   <line id="_58424600" class="fil0 str1" x1="114.119" y1="102.306" x2="114.372" y2= "102.203" />
   <line id="_58423640" class="fil0 str0" x1="103.42" y1="101.23" x2="103.817" y2= "101.059" />
   <line id="_58422680" class="fil0 str0" x1="104.509" y1="100.819" x2="104.494" y2= "100.806" />
   <line id="_58421720" class="fil0 str1" x1="103.534" y1="100.281" x2="103.882" y2= "100.316" />
   <line id="_58420728" class="fil0 str3" x1="122.062" y1="95.0186" x2="122.65" y2= "95.4736" />
   <line id="_58419768" class="fil0 str1" x1="123.199" y1="96.0322" x2="123.557" y2= "96.597" />
   <line id="_58418976" class="fil0 str0" x1="123.797" y1="97.1868" x2="123.787" y2= "97.222" />
   <line id="_58418184" class="fil0 str1" x1="122.65" y1="95.4736" x2="123.199" y2= "96.0322" />
   <polyline id="_58343320" class="fil0 str3" points="123.787,97.222 123.974,97.7978 123.966,98.3975 "/>
   <line id="_58342360" class="fil0 str2" x1="123.785" y1="99.0832" x2="123.634" y2= "99.5134" />
   <line id="_58341432" class="fil0 str1" x1="119.952" y1="100.851" x2="121.004" y2= "100.925" />
   <line id="_58340640" class="fil0 str0" x1="121.821" y1="100.822" x2="122.53" y2= "100.632" />
   <polyline id="_58339512" class="fil0 str1" points="123.059,100.264 123.385,99.9556 123.634,99.5134 "/>
   <line id="_58338552" class="fil0 str0" x1="121.004" y1="100.925" x2="121.821" y2= "100.822" />
   <line id="_58337592" class="fil0 str0" x1="123.966" y1="98.3975" x2="123.785" y2= "99.0832" />
   <line id="_58336800" class="fil0 str1" x1="123.557" y1="96.597" x2="123.792" y2= "97.2044" />
   <polyline id="_58331104" class="fil0 str1" points="122.949,94.3496 123.657,94.0844 124.43,94.0063 125.028,94.0892 125.596,94.2202 126.114,94.3946 126.437,94.6679 126.844,95.1893 127.103,95.6338 127.279,96.0374 127.353,96.3957 127.383,97.1018 "/>
   <line id="_58331000" class="fil0 str0" x1="133.324" y1="87.8102" x2="133.518" y2= "87.8128" />
   <path id="_58330280" class="fil0 str4" d="M114.008 96.4258c0.41,0.1935 1.3303,0.5035 0.9531,1.9321 -0.1886,0.7143 -0.4879,0.9427 -0.792,1.0914 -0.304,0.1488 -0.6131,0.2181 -0.9907,0.1184 -0.7552,-0.1995 -1.1821,-1.0647 -0.953,-1.9321 0.229,-0.8675 1.3726,-1.4032 1.7826,-1.2098z"/>
   <path id="_58329160" class="fil0 str1" d="M124.948 91.4929c0.4094,-0.5799 1.7609,-0.5708 2.5009,-0.3754 0.9058,0.2392 1.2805,1.1897 1.4479,1.9446"/>
   <path id="_58328304" class="fil0 str1" d="M128.033 88.7152c0.2811,-0.088 0.2243,-0.0173 0.4884,0.0524 1.5808,0.4174 1.6991,1.2142 1.5714,2.6167"/>
   <path id="_58327584" class="fil0 str1" d="M131.231 87.9987c0.3749,0.0188 0.4471,0.1603 0.5854,0.3977 0.0766,0.1317 0.1752,0.2248 0.268,0.4093 0.0755,0.1501 0.0454,0.5402 -0.0006,0.7145 -0.0558,0.2115 -0.1759,0.6441 -0.1321,0.8536"/>
   <path id="_58326864" class="fil0 str0" d="M133.324 87.8102c0.1511,0.0927 0.2206,0.2117 0.3645,0.3519 0.1136,0.1107 0.2103,0.1549 0.2345,0.3768 0.0161,0.1469 -0.0109,0.4682 -0.0525,0.6256 -0.0155,0.0589 -0.3914,0.8212 -0.1926,0.6086"/>
   <path id="_58325528" class="fil0 str1" d="M107.538 100.003c-0.1992,-0.0063 -0.1208,-0.0189 -0.1943,0.0239 -0.0072,0.0041 -0.0696,0.0121 -0.0796,0.0166 -0.0628,0.0277 -0.0913,0.1683 -0.1002,0.2368 -0.0022,0.017 0.0112,0.0704 0.0166,0.0796 0.0122,0.0209 0.0161,0.0223 0.0259,0.0445 0.0398,0.0899 0.1072,0.0611 0.1499,0.002 0.0524,-0.0726 -0.0307,-0.121 0.0982,-0.087 0.0223,0.0059 0.1451,0.0203 0.1406,0.0372l-0.0092 0.0351c-0.0154,0.0582 0.0735,-0.043 0.061,0.0538 -0.0039,0.03 -0.0236,0.222 0.0239,0.1943 0.0209,-0.0121 0.0009,-0.0537 0.0186,-0.0703 0.0346,-0.0326 0.0393,-0.0064 0.063,-0.0962l0.0278 -0.1055c0.004,-0.015 0.0313,-0.0943 0.0279,-0.1055 -0.0072,-0.0231 -0.0025,-0.0382 -0.0259,-0.0444l-0.0352 -0.0093c-0.0858,-0.0226 0.0188,-0.0601 -0.0517,-0.0889 -0.0704,-0.0287 -0.0452,0.0016 -0.1573,-0.1167z"/>
   <path id="_58324808" class="fil0 str0" d="M114.064 97.0233c0.4291,0.1133 0.4091,0.7048 0.2645,1.2527 -0.1447,0.5478 -0.5612,0.7517 -0.9903,0.6384 -0.4291,-0.1133 -0.6921,-0.4853 -0.5474,-1.0332 0.1446,-0.5478 0.8441,-0.9712 1.2732,-0.8579z"/>
   <polyline id="_58323752" class="fil0 str1" points="106.368,94.3902 106.637,94.085 106.776,93.8399 "/>
   <line id="_58093488" class="fil0 str1" x1="105.574" y1="95.0457" x2="105.975" y2= "94.7379" />
   <line id="_58092600" class="fil0 str1" x1="103.817" y1="101.059" x2="104.135" y2= "100.955" />
   <line id="_58091712" class="fil0 str0" x1="104.509" y1="100.819" x2="104.62" y2= "100.963" />
   <line id="_58090824" class="fil0 str1" x1="104.805" y1="101.237" x2="105.088" y2= "101.518" />
   <line id="_58089936" class="fil0 str1" x1="105.676" y1="101.711" x2="106.138" y2= "101.815" />
   <line id="_58089048" class="fil0 str1" x1="106.913" y1="101.869" x2="107.689" y2= "101.923" />
   <line id="_58088160" class="fil0 str1" x1="104.306" y1="100.56" x2="104.494" y2= "100.806" />
   <line id="_58087272" class="fil0 str2" x1="122.53" y1="100.632" x2="123.059" y2= "100.264" />
   <line id="_58086552" class="fil0 str1" x1="108.872" y1="102.142" x2="109.959" y2= "102.372" />
   <line id="_88147904" class="fil0 str1" x1="110.918" y1="102.513" x2="112.241" y2= "102.401" />
   <path id="_58416512" class="fil0 str0" d="M122.356 95.2461c-0.1847,-0.0867 -0.1676,-0.1486 -0.2974,0.0089 -0.0438,0.0532 -0.5951,-0.2101 -0.7403,-0.0451 -0.2224,0.2527 -0.1045,0.2857 -0.0338,0.5553 0.0246,0.0941 -0.2956,0.2712 -0.3576,0.357 -0.2233,0.3094 0.4519,0.4202 0.6642,0.4762 0.2886,0.0762 0.4985,0.0946 0.4976,0.3947 -0.0009,0.2803 0.6001,0.4594 0.8399,0.5227 0.5776,0.1525 0.5839,-0.6625 0.7461,-0.6151"/>
   <path id="_58415792" class="fil0 str1" d="M109.69 92.6547c0.0308,1.2829 -2.9592,1.9599 -3.2231,2.9594 -0.0664,0.2516 -0.9165,-0.2204 -1.0422,0.1009 -0.263,0.6723 -2.0876,1.6118 -1.172,2.5868 0.9612,1.0236 5.3247,-0.2179 6.1962,-0.9593 0.8855,-0.7533 0.0939,-1.2443 1.6842,-1.9625 1.4345,-0.6478 3.2367,-0.0362 4.5742,-0.372 0.7123,-0.1788 0.9642,-0.6481 1.7348,-0.4446 0.8311,0.2194 2.0548,1.4774 2.4526,-0.0294 0.1124,-0.4255 -3.2415,-1.6835 -3.8042,-1.832 -1.0898,-0.2878 -1.3089,0.3314 -2.2768,0.0758 -0.585,-0.1544 -1.6519,-0.8814 -2.0624,-0.8193"/>
   <path id="_58415072" class="fil0 str2" d="M125.312 94.1547c-0.6598,0.0676 0.04,-0.291 -0.2428,0.2402 -0.0752,0.1414 -0.5399,0.3642 -0.6501,0.4678 -0.1437,0.135 -0.2941,0.2593 -0.3688,0.542 -0.0365,0.1381 -0.188,0.5307 -0.1319,0.6422 0.1119,0.2224 0.3372,0.1191 0.2939,0.4538 -0.0443,0.3424 0.5501,0.3629 0.7975,0.3986 0.4378,0.0632 0.3675,0.0325 0.4816,-0.3994 0.067,-0.2538 -0.1318,-0.3191 -0.0459,-0.5387 0.0596,-0.1523 0.1786,-0.1933 0.2946,-0.2608 0.1016,-0.0591 0.1762,-0.5251 0.2115,-0.6588 0.0763,-0.2888 0.5267,-0.2431 0.1622,-0.647"/>
   <path id="_58414008" class="fil0 str0" d="M122.738 94.5952c0.4547,-0.4328 0.0469,-0.2298 0.2306,-0.078 0.0304,0.0251 0.1345,0.0303 0.1758,0.0464 0.089,0.0348 0.2148,0.1734 0.2349,0.2501 0.011,0.0418 0.0079,0.2562 -0.0391,0.2906 -0.0269,0.0196 -0.2203,0.0315 -0.1871,0.1386 0.0253,0.0818 -0.0079,0.1723 -0.0391,0.2906 -0.0362,0.1371 -0.1955,0.0417 -0.3201,0.0858"/>
   <path id="_58412544" class="fil0 str0" d="M124.164 92.7528c0.4894,0.0512 0.5745,0.1405 0.971,-0.033 0.1972,-0.0863 0.3003,0.1655 0.3311,0.3131 0.0462,0.222 0.005,0.1618 0.1015,0.3277 0.1052,0.1807 -0.1046,0.4989 -0.3409,0.4365 -0.2135,-0.0563 -0.3625,-0.0186 -0.4777,0.0996 -0.194,0.199 -0.3529,0.5036 -0.6687,0.5381 -0.3762,0.0412 -0.6436,-0.2906 -0.8549,-0.4065"/>
   <path id="_58411824" class="fil0 str1" d="M126.403 93.6186c-0.3116,-0.4892 0.0964,-0.3651 0.195,-0.7384 0.0583,-0.221 0.1021,-0.4358 0.1319,-0.6422 0.059,-0.4081 -0.0631,-0.832 0.6335,-0.5474 0.1441,0.0588 -0.0848,0.2409 0.1109,0.2926 0.3072,0.0811 0.1917,0.4132 0.1327,0.6368 -0.0239,0.0907 0.0354,0.3585 0.0107,0.5294 -0.0241,0.1664 -0.0708,0.2984 -0.2076,0.359 -0.1441,0.0637 -0.3226,0.4038 -0.5075,0.3549 -0.2096,-0.0553 -0.5513,-0.049 -0.4996,-0.2447z"/>
   <path id="_58411104" class="fil0 str2" d="M125.839 92.191c0.1479,-0.179 0.1067,-0.1988 0.1818,-0.4034 0.0488,-0.1331 0.1574,-0.0373 0.2129,-0.0942 0.1125,-0.1154 0.0657,-0.3454 0.1559,-0.4479 0.1406,-0.1597 0.2032,-0.0573 0.2686,-0.3052 0.0839,-0.3174 -0.451,-0.1731 -0.5884,-0.1929 -0.1551,-0.0224 -0.1739,0.2309 -0.2169,0.394 -0.0669,0.2533 -0.05,0.2065 -0.2687,0.3052 -0.0151,0.0069 -0.087,0.0774 -0.0982,0.087 -0.2114,0.1812 -0.344,0.1666 -0.2354,0.4644 0.0737,0.2021 0.2254,0.2099 0.5884,0.193z"/>
   <path id="_58410024" class="fil0 str0" d="M127.985 90.1903c0.1184,-0.1344 0.1115,-0.3027 0.3607,-0.0834 0.0969,0.0853 0.2341,0.2691 0.1015,0.3278 -0.2678,0.1184 -0.0922,0.5075 -0.2633,0.5699 -0.0913,0.0332 -0.2252,-0.0219 -0.3257,-0.0484 -0.3219,-0.085 -0.1452,-0.4567 0.1268,-0.7659z"/>
   <path id="_58409304" class="fil0 str0" d="M127.496 89.6194c0.1766,0.0466 0.2365,0.2259 0.0793,0.3407 -0.0942,0.0687 -0.2599,-0.0345 -0.2362,0.1821 0.0238,0.2175 -0.1564,0.4288 -0.327,0.3838 -0.1938,-0.0512 -0.2464,-0.094 -0.3181,-0.2909 -0.0788,-0.2161 0.1236,-0.47 0.3234,-0.4412 0.1383,0.02 0.1181,-0.1696 0.2759,-0.1904 0.1356,-0.0179 0.2628,0.0509 0.3377,0.1456"/>
   <path id="_58408256" class="fil0 str1" d="M128.972 89.7271c-0.2387,-0.1486 -0.0863,-0.5021 0.1253,-0.4747 0.1928,0.0249 0.3371,-0.1929 0.5138,-0.1653 0.2708,0.0424 0.205,0.0208 0.3944,-0.1403 0.1046,-0.089 0.5913,-0.1382 0.6803,-0.0837 0.1187,0.0727 -0.0836,0.2979 -0.1631,0.3331 -0.1517,0.0671 -0.0859,0.3533 -0.2438,0.4246 -0.1186,0.0536 -0.2341,0.0296 -0.3546,0.1321 -0.0583,0.0496 -0.1098,0.2352 -0.1575,0.2405 -0.0464,0.005 -0.1613,-0.0426 -0.211,-0.0558 -0.1201,-0.0317 -0.0831,0.1286 -0.2832,0.0757 -0.1136,-0.03 -0.2114,-0.151 -0.2173,-0.2454"/>
   <path id="_58407136" class="fil0 str1" d="M127.821 88.8232c0.0919,0.1732 0.2252,0.208 0.4188,0.2591 0.0832,0.022 0.2441,0.083 0.3035,0.0613 0.2007,-0.0731 0.0905,-0.0726 0.1085,-0.197 0.0093,-0.0647 0.0981,-0.0427 0.1204,-0.0999 0.0567,-0.145 0.041,-0.1726 0.1798,-0.2534 0.1253,-0.073 0.0738,-0.1181 0.0325,-0.236"/>
   <path id="_88149464" class="fil0 str1" d="M131.786 88.7585c-0.1378,0.0056 -0.2535,0 -0.3071,-0.1187 -0.1154,-0.2556 0.1413,-0.2421 0.3204,-0.2163 0.0443,0.0064 0.1096,-0.0741 0.138,-0.0952 0.0303,-0.0225 0.128,-0.0038 0.1675,0.0066 0.0629,0.0166 0.1883,-0.0834 0.2823,-0.0007 0.0984,0.0866 0.0444,0.3774 -0.0846,0.3915 -0.0179,0.0019 -0.1989,-0.0451 -0.211,-0.0558 -0.0464,-0.0408 -0.0285,-0.0451 -0.0962,-0.063 -0.0594,-0.0157 -0.2057,0.0592 -0.039,-0.0095"/>
   <path id="_58405568" class="fil0 str1" d="M132.963 87.8054c-0.107,-0.0135 -0.1109,0.0634 -0.0721,0.1165 0.0645,0.0884 -0.064,0.0286 -0.0899,0.1267 -0.0389,0.1475 0.2782,0.1327 0.3387,0.0706 0.0331,-0.034 0.2351,-0.1007 0.2647,-0.0053 0.0091,0.0295 -0.1132,0.0441 -0.1287,0.06 -0.0523,0.0536 0.2451,0.3875 0.2856,0.414 0.1414,0.0681 0.3574,0.2134 0.4147,-0.0034 0.0197,-0.0748 -0.1181,-0.133 -0.0545,-0.2212 0.032,-0.0442 0.1575,-0.0362 0.1075,-0.1221 -0.0376,-0.0645 -0.1641,-0.1848 -0.2266,-0.2103 -0.0317,-0.0129 -0.0561,-0.0524 -0.1138,-0.0676 -0.0879,-0.0233 -0.0879,-0.1032 -0.1702,-0.1505"/>
  </g>
  <path class="fil1" d="M53.7172 92.8617l4.4631 0 4.6668 -16.5021 -5.4461 0 1.4656 6.7965 -0.7129 2.1784 -1.9482 -8.9749 -5.7826 0 4.3303 14.1687 -1.036 2.3334zm-1.6737 1.036l1.4788 -3.3739 -4.6181 -15.2003 15.4882 0 -5.2779 18.5742 -7.071 0z"/>
  <path id="1" class="fil1" d="M66.779 80.5615l0 -5.238 8.51 0c2.1165,0 3.6175,0.4117 4.5075,1.2397 0.8855,0.8236 1.3283,2.2537 1.3283,4.2816l0 9.3558 -8.3153 0c-2.3157,0 -4.0868,-0.4428 -5.3088,-1.3239 -1.2265,-0.8811 -1.8375,-2.1563 -1.8375,-3.8255 0,-1.0317 0.2656,-1.9394 0.7925,-2.7319 0.5269,-0.7926 1.2575,-1.3771 2.1918,-1.7578l-1.8685 0zm6.2386 4.0115l0 -3.9584c-0.1727,-0.0089 -0.3498,-0.0177 -0.5269,-0.0221 -0.1771,-0.0045 -0.3498,-0.0045 -0.5224,-0.0045 -1.5497,0 -2.7851,0.4074 -3.706,1.2176 -0.921,0.8147 -1.3815,1.8863 -1.3815,3.219 0,1.3416 0.4738,2.3644 1.4213,3.0773 0.9475,0.7084 2.3157,1.0626 4.1045,1.0626l7.5005 0 0 -8.696c0,-1.5099 -0.3365,-2.5725 -1.005,-3.188 -0.6731,-0.6154 -1.8243,-0.9209 -3.4581,-0.9209l-7.4961 0 0 3.2676 5.3177 0c0.3542,0 0.6066,0.0753 0.7571,0.2214 0.1506,0.1461 0.2258,0.4029 0.2258,0.766l0 5.176 -0.2479 0c-0.3852,0 -0.6465,-0.0708 -0.7837,-0.2125 -0.1329,-0.1462 -0.1993,-0.4782 -0.1993,-1.0051z"/>
  <path id="12" class="fil1" d="M85.3267 89.1645l5.2955 0 0 -9.7808 0.2081 0c0.3366,0 0.5889,0.062 0.7572,0.1815 0.1682,0.1196 0.2524,0.3011 0.2524,0.5446 0,0.0355 0.0044,0.1107 0.0132,0.2258 0.0089,0.1196 0.0133,0.2126 0.0133,0.279l0 1.3504 5.2823 0 0 -1.1689c0,-1.6781 -0.3277,-2.8381 -0.9874,-3.4757 -0.6553,-0.642 -1.8331,-0.9608 -3.5289,-0.9608l-7.3057 0 0 12.8049zm-1.2176 1.0361l0 -14.8771 8.2621 0c2.2316,0 3.7901,0.4117 4.6801,1.2309 0.8855,0.8235 1.3283,2.2714 1.3283,4.348l0 2.0987 -6.5132 0 0 7.1995 -7.7573 0z"/>
  <path id="123" class="fil1" d="M101.607 80.5615l0 -5.238 8.51 0c2.1165,0 3.6175,0.4117 4.5075,1.2397 0.8855,0.8236 1.3283,2.2537 1.3283,4.2816l0 9.3558 -8.3153 0c-2.3157,0 -4.0868,-0.4428 -5.3088,-1.3239 -1.2265,-0.8811 -1.8375,-2.1563 -1.8375,-3.8255 0,-1.0317 0.2656,-1.9394 0.7925,-2.7319 0.5269,-0.7926 1.2575,-1.3771 2.1918,-1.7578l-1.8685 0zm6.2386 4.0115l0 -3.9584c-0.1727,-0.0089 -0.3498,-0.0177 -0.5269,-0.0221 -0.1771,-0.0045 -0.3498,-0.0045 -0.5224,-0.0045 -1.5497,0 -2.7851,0.4074 -3.706,1.2176 -0.921,0.8147 -1.3815,1.8863 -1.3815,3.219 0,1.3416 0.4738,2.3644 1.4213,3.0773 0.9475,0.7084 2.3157,1.0626 4.1045,1.0626l7.5005 0 0 -8.696c0,-1.5099 -0.3365,-2.5725 -1.005,-3.188 -0.6731,-0.6154 -1.8243,-0.9209 -3.4581,-0.9209l-7.4961 0 0 3.2676 5.3177 0c0.3542,0 0.6066,0.0753 0.7571,0.2214 0.1506,0.1461 0.2258,0.4029 0.2258,0.766l0 5.176 -0.2479 0c-0.3852,0 -0.6465,-0.0708 -0.7837,-0.2125 -0.1329,-0.1462 -0.1993,-0.4782 -0.1993,-1.0051z"/>
  <path id="1234" class="fil1" d="M120.155 89.1645l5.2955 0 0 -9.7808 0.2081 0c0.3366,0 0.5889,0.062 0.7572,0.1815 0.1682,0.1196 0.2524,0.3011 0.2524,0.5446 0,0.0355 0.0044,0.1107 0.0132,0.2258 0.0089,0.1196 0.0133,0.2126 0.0133,0.279l0 1.3504 5.2823 0 0 -1.1689c0,-1.6781 -0.3277,-2.8381 -0.9874,-3.4757 -0.6553,-0.642 -1.8331,-0.9608 -3.5289,-0.9608l-7.3057 0 0 12.8049zm-1.2176 1.0361l0 -14.8771 8.2621 0c2.2316,0 3.7901,0.4117 4.6801,1.2309 0.8855,0.8235 1.3283,2.2714 1.3283,4.348l0 2.0987 -6.5132 0 0 7.1995 -7.7573 0z"/>
  <path id="12345" class="fil1" d="M136.436 80.5615l0 -5.238 8.51 0c2.1165,0 3.6175,0.4117 4.5075,1.2397 0.8855,0.8236 1.3283,2.2537 1.3283,4.2816l0 9.3558 -8.3153 0c-2.3157,0 -4.0868,-0.4428 -5.3088,-1.3239 -1.2265,-0.8811 -1.8375,-2.1563 -1.8375,-3.8255 0,-1.0317 0.2656,-1.9394 0.7925,-2.7319 0.5269,-0.7926 1.2575,-1.3771 2.1918,-1.7578l-1.8685 0zm6.2386 4.0115l0 -3.9584c-0.1727,-0.0089 -0.3498,-0.0177 -0.5269,-0.0221 -0.1771,-0.0045 -0.3498,-0.0045 -0.5224,-0.0045 -1.5497,0 -2.7851,0.4074 -3.706,1.2176 -0.921,0.8147 -1.3815,1.8863 -1.3815,3.219 0,1.3416 0.4738,2.3644 1.4213,3.0773 0.9475,0.7084 2.3157,1.0626 4.1045,1.0626l7.5005 0 0 -8.696c0,-1.5099 -0.3365,-2.5725 -1.005,-3.188 -0.6731,-0.6154 -1.8243,-0.9209 -3.4581,-0.9209l-7.4961 0 0 3.2676 5.3177 0c0.3542,0 0.6066,0.0753 0.7571,0.2214 0.1506,0.1461 0.2258,0.4029 0.2258,0.766l0 5.176 -0.2479 0c-0.3852,0 -0.6465,-0.0708 -0.7837,-0.2125 -0.1329,-0.1462 -0.1993,-0.4782 -0.1993,-1.0051z"/>
  <path class="fil1" d="M130.935 90.1799l0 0.2736c-0.103,-0.0437 -0.191,-0.0655 -0.264,-0.0655 -0.0546,0 -0.1003,0.0109 -0.1358,0.0327 -0.0362,0.0219 -0.0587,0.0471 -0.0682,0.0757 -0.0096,0.0287 -0.0143,0.1051 -0.0143,0.2293l0 0.2933 0.4543 0 0 0.2401 -0.4557 0 0 1.9347 -0.2804 0 0 -1.9347 -0.2858 0 0 -0.2401 0.2858 0 0 -0.3397c0,-0.1556 0.0143,-0.2668 0.043,-0.3336 0.0286,-0.0662 0.0778,-0.1201 0.146,-0.161 0.0689,-0.0403 0.1514,-0.0607 0.249,-0.0607 0.0907,0 0.1992,0.0184 0.3261,0.0559z"/>
  <path id="1" class="fil1" d="M131.219 91.019l0.2859 0 0 0.3179c0.0852,-0.1248 0.1753,-0.2183 0.2694,-0.2804 0.0948,-0.0621 0.1931,-0.0934 0.2961,-0.0934 0.0771,0 0.1596,0.0252 0.2476,0.0743l-0.146 0.2361c-0.0586,-0.026 -0.1078,-0.0382 -0.148,-0.0382 -0.0928,0 -0.1828,0.0382 -0.2695,0.1146 -0.0866,0.077 -0.1528,0.1957 -0.1978,0.3567 -0.0348,0.1242 -0.0518,0.3746 -0.0518,0.7518l0 0.7354 -0.2859 0 0 -2.1748z"/>
  <path id="12" class="fil1" d="M134.723 91.019l0 2.1748 -0.2756 0 0 -0.3738c-0.1174,0.1425 -0.249,0.2496 -0.395,0.322 -0.146,0.0716 -0.3056,0.1077 -0.4789,0.1077 -0.3077,0 -0.5703,-0.1118 -0.7886,-0.3349 -0.2176,-0.2231 -0.3268,-0.4946 -0.3268,-0.8145 0,-0.3132 0.1105,-0.5806 0.3302,-0.803 0.2197,-0.2224 0.4844,-0.3342 0.7934,-0.3342 0.1787,0 0.3404,0.0382 0.4843,0.1139 0.1447,0.0764 0.2715,0.1903 0.3814,0.3418l0 -0.3998 0.2756 0zm-1.1195 0.2142c-0.1555,0 -0.2995,0.0382 -0.4318,0.1146 -0.1317,0.0771 -0.2367,0.1842 -0.3145,0.3234 -0.0778,0.1385 -0.1167,0.2851 -0.1167,0.4393 0,0.1535 0.0389,0.3002 0.1174,0.44 0.0791,0.1398 0.1842,0.2483 0.3172,0.3268 0.1323,0.0777 0.2749,0.1166 0.4264,0.1166 0.1535,0 0.2988,-0.0389 0.4359,-0.116 0.1371,-0.077 0.2428,-0.1814 0.3165,-0.3138 0.0744,-0.1316 0.1112,-0.2803 0.1112,-0.4454 0,-0.2517 -0.0832,-0.4625 -0.249,-0.6317 -0.1658,-0.1692 -0.3697,-0.2538 -0.6126,-0.2538z"/>
  <path id="123" class="fil1" d="M135.35 91.019l0.2777 0 0 0.3759c0.0975,-0.1385 0.1971,-0.2395 0.3001,-0.3036 0.1412,-0.0853 0.2899,-0.1282 0.4455,-0.1282 0.105,0 0.2053,0.0211 0.3001,0.062 0.0942,0.0417 0.172,0.0962 0.2313,0.1651 0.06,0.0689 0.1119,0.1672 0.1562,0.2947 0.0935,-0.1705 0.2101,-0.3001 0.35,-0.3888 0.1398,-0.0887 0.2899,-0.133 0.4516,-0.133 0.1501,0 0.2831,0.0382 0.3984,0.1139 0.1153,0.0764 0.2012,0.1821 0.2572,0.3179 0.0559,0.1357 0.0839,0.3397 0.0839,0.6119l0 1.187 -0.2859 0 0 -1.187c0,-0.2333 -0.017,-0.3936 -0.0498,-0.4809 -0.0334,-0.0874 -0.0907,-0.1576 -0.1712,-0.2108 -0.0805,-0.0532 -0.1767,-0.0798 -0.2885,-0.0798 -0.1365,0 -0.2606,0.0395 -0.3732,0.12 -0.1126,0.0798 -0.1944,0.1863 -0.247,0.3193 -0.0518,0.1337 -0.0777,0.3561 -0.0777,0.6678l0 0.8514 -0.2777 0 0 -1.1133c0,-0.2627 -0.0163,-0.4407 -0.0491,-0.5349 -0.0327,-0.0934 -0.0894,-0.1691 -0.1705,-0.2258 -0.0812,-0.0566 -0.1781,-0.0845 -0.29,-0.0845 -0.1296,0 -0.2503,0.0388 -0.3629,0.1166 -0.1125,0.0785 -0.1958,0.1828 -0.2497,0.3152 -0.0539,0.1316 -0.0811,0.3336 -0.0811,0.6051l0 0.9216 -0.2777 0 0 -2.1748z"/>
  <path id="1234" class="fil1" d="M141.022 92.4721l0.2354 0.1241c-0.0771,0.1521 -0.1665,0.2742 -0.2674,0.3677 -0.1017,0.0935 -0.2156,0.1644 -0.3418,0.2128 -0.1269,0.0485 -0.2701,0.073 -0.4298,0.073 -0.3547,0 -0.6317,-0.1159 -0.8316,-0.3486 -0.1998,-0.2326 -0.2994,-0.4952 -0.2994,-0.7886 0,-0.2756 0.0846,-0.5218 0.2537,-0.7374 0.2142,-0.2742 0.5014,-0.412 0.861,-0.412 0.3704,0 0.6664,0.1412 0.8875,0.4222 0.1576,0.1985 0.2374,0.4462 0.2401,0.7429l-1.9545 0c0.0048,0.2538 0.086,0.4612 0.2415,0.6229 0.1563,0.1616 0.3486,0.2428 0.5778,0.2428 0.1106,0 0.2183,-0.0191 0.3227,-0.058 0.1044,-0.0388 0.1938,-0.09 0.2668,-0.1541 0.0729,-0.0635 0.1528,-0.1672 0.238,-0.3097zm0 -0.5854c-0.0375,-0.1494 -0.0921,-0.2687 -0.163,-0.3574 -0.0716,-0.0894 -0.1658,-0.1617 -0.2831,-0.2163 -0.1173,-0.0546 -0.2401,-0.0818 -0.3698,-0.0818 -0.2128,0 -0.3963,0.0689 -0.5491,0.206 -0.1119,0.0996 -0.1965,0.2497 -0.2538,0.4495l1.6188 0z"/>
  <polygon id="12345" class="fil1" points="141.557,91.019 141.845,91.019 142.511,92.5983 143.208,91.019 143.259,91.019 143.954,92.5983 144.631,91.019 144.923,91.019 143.98,93.1938 143.926,93.1938 143.234,91.6371 142.537,93.1938 142.485,93.1938 "/>
  <path id="123456" class="fil1" d="M146.282 90.9631c0.3342,0 0.6112,0.1214 0.8316,0.3642 0.1998,0.2211 0.2994,0.483 0.2994,0.7852 0,0.3036 -0.1057,0.5697 -0.3165,0.7968 -0.2115,0.2272 -0.483,0.3404 -0.8145,0.3404 -0.3329,0 -0.6051,-0.1132 -0.8166,-0.3404 -0.2115,-0.2271 -0.3165,-0.4932 -0.3165,-0.7968 0,-0.3008 0.0996,-0.5621 0.2994,-0.7831 0.2197,-0.2442 0.498,-0.3663 0.8337,-0.3663zm0 0.2742c-0.232,0 -0.4312,0.086 -0.5976,0.2579 -0.1665,0.1719 -0.2497,0.3793 -0.2497,0.6235 0,0.1569 0.0375,0.3036 0.1139,0.4393 0.0757,0.1364 0.1781,0.2408 0.3077,0.3152 0.1289,0.0736 0.2708,0.1105 0.4257,0.1105 0.1541,0 0.296,-0.0369 0.4257,-0.1105 0.1289,-0.0744 0.2319,-0.1788 0.3076,-0.3152 0.0757,-0.1357 0.1139,-0.2824 0.1139,-0.4393 0,-0.2442 -0.0839,-0.4516 -0.251,-0.6235 -0.1671,-0.1719 -0.3656,-0.2579 -0.5962,-0.2579z"/>
  <path id="1234567" class="fil1" d="M147.827 91.019l0.2859 0 0 0.3179c0.0852,-0.1248 0.1753,-0.2183 0.2694,-0.2804 0.0948,-0.0621 0.1931,-0.0934 0.2961,-0.0934 0.0771,0 0.1596,0.0252 0.2476,0.0743l-0.146 0.2361c-0.0586,-0.026 -0.1078,-0.0382 -0.148,-0.0382 -0.0928,0 -0.1828,0.0382 -0.2695,0.1146 -0.0866,0.077 -0.1528,0.1957 -0.1978,0.3567 -0.0348,0.1242 -0.0518,0.3746 -0.0518,0.7518l0 0.7354 -0.2859 0 0 -2.1748z"/>
  <polygon id="12345678" class="fil1" points="149.162,90.1799 149.444,90.1799 149.444,91.8949 150.45,91.019 150.861,91.019 149.668,92.0566 150.931,93.1938 150.535,93.1938 149.444,92.2162 149.444,93.1938 149.162,93.1938 "/>
 </g>
</svg>
